<svg id="HomeBaseTestSvg" xmlns="http://www.w3.org/2000/svg" viewBox="0 0 232 143">
            <path id="NewPath" fill="rgba(17, 255, 0, 0.25)" stroke="black" stroke-width="1" d="M 57.02,65.00
                                     C 57.02,65.00 45.95,65.00 45.95,65.00
                                       45.95,65.00 45.95,45.50 45.95,45.50
                                       45.95,45.50 25.64,45.50 25.64,45.50
                                       25.64,45.50 25.64,65.00 25.64,65.00
                                       25.64,65.00 14.61,65.00 14.61,65.00
                                       14.61,65.00 14.61,16.00 14.61,16.00
                                       14.61,16.00 25.64,16.00 25.64,16.00
                                       25.64,16.00 25.64,36.00 25.64,36.00
                                       25.64,36.00 45.95,36.00 45.95,36.00
                                       45.95,36.00 45.95,16.00 45.95,16.00
                                       45.95,16.00 57.02,16.00 57.02,16.00
                                       57.02,16.00 57.02,65.00 57.02,65.00 Z
                                     M 89.31,66.00
                                     C 82.30,66.00 76.58,63.70 72.16,59.11
                                       67.74,54.51 65.53,48.52 65.53,41.14
                                       65.53,33.34 67.77,27.03 72.27,22.22
                                       76.75,17.41 82.70,15.00 90.11,15.00
                                       97.10,15.00 102.75,17.31 107.06,21.92
                                       111.38,26.53 113.55,32.60 113.55,40.14
                                       113.55,47.89 111.30,54.14 106.83,58.89
                                       102.35,63.63 96.51,66.00 89.31,66.00 Z
                                     M 89.80,24.50
                                     C 85.93,24.50 82.86,25.97 80.58,28.91
                                       78.30,31.84 77.16,35.71 77.16,40.55
                                       77.16,45.45 78.30,49.34 80.58,52.19
                                       82.86,55.04 85.84,56.47 89.53,56.47
                                       93.33,56.47 96.35,55.09 98.58,52.31
                                       100.82,49.54 101.94,45.70 101.94,40.77
                                       101.94,35.63 100.85,31.64 98.69,28.78
                                       96.52,25.93 93.55,24.50 89.80,24.50 Z
                                     M 177.45,65.00
                                     C 177.45,65.00 166.55,65.00 166.55,65.00
                                       166.55,65.00 166.55,35.69 166.55,35.69
                                       166.55,32.52 166.69,29.02 166.97,25.19
                                       166.97,25.19 166.70,25.19 166.70,25.19
                                       166.13,28.20 165.61,30.37 165.16,31.69
                                       165.16,31.69 153.67,65.00 153.67,65.00
                                       153.67,65.00 144.64,65.00 144.64,65.00
                                       144.64,65.00 132.95,32.03 132.95,32.03
                                       132.64,31.14 132.13,28.86 131.42,25.19
                                       131.42,25.19 131.11,25.19 131.11,25.19
                                       131.40,30.02 131.55,34.26 131.55,37.91
                                       131.55,37.91 131.55,65.00 131.55,65.00
                                       131.55,65.00 121.61,65.00 121.61,65.00
                                       121.61,65.00 121.61,16.00 121.61,16.00
                                       121.61,16.00 137.77,16.00 137.77,16.00
                                       137.77,16.00 147.78,45.05 147.78,45.05
                                       148.58,47.37 149.16,49.70 149.53,52.05
                                       149.53,52.05 149.73,52.05 149.73,52.05
                                       150.35,49.34 151.00,46.98 151.69,44.97
                                       151.69,44.97 161.70,16.00 161.70,16.00
                                       161.70,16.00 177.45,16.00 177.45,16.00
                                       177.45,16.00 177.45,65.00 177.45,65.00 Z
                                     M 218.00,65.00
                                     C 218.00,65.00 188.61,65.00 188.61,65.00
                                       188.61,65.00 188.61,16.00 188.61,16.00
                                       188.61,16.00 216.88,16.00 216.88,16.00
                                       216.88,16.00 216.88,24.98 216.88,24.98
                                       216.88,24.98 199.64,24.98 199.64,24.98
                                       199.64,24.98 199.64,36.00 199.64,36.00
                                       199.64,36.00 215.67,36.00 215.67,36.00
                                       215.67,36.00 215.67,44.95 215.67,44.95
                                       215.67,44.95 199.64,44.95 199.64,44.95
                                       199.64,44.95 199.64,56.05 199.64,56.05
                                       199.64,56.05 218.00,56.05 218.00,56.05
                                       218.00,56.05 218.00,65.00 218.00,65.00 Z
                                     M 35.61,131.00
                                     C 35.61,131.00 35.61,82.00 35.61,82.00
                                       35.61,82.00 53.45,82.00 53.45,82.00
                                       58.92,82.00 63.12,83.02 66.06,85.05
                                       69.00,87.07 70.47,89.92 70.47,93.61
                                       70.47,96.28 69.57,98.62 67.78,100.62
                                       66.00,102.62 63.72,104.02 60.94,104.80
                                       60.94,104.80 60.94,104.94 60.94,104.94
                                       64.43,105.37 67.21,106.64 69.30,108.77
                                       71.38,110.88 72.42,113.46 72.42,116.52
                                       72.42,120.95 70.81,124.48 67.59,127.09
                                       64.38,129.70 60.00,131.00 54.44,131.00
                                       54.44,131.00 35.61,131.00 35.61,131.00 Z
                                     M 46.64,90.14
                                     C 46.64,90.14 46.64,102.00 46.64,102.00
                                       46.64,102.00 51.50,102.00 51.50,102.00
                                       53.77,102.00 55.56,101.44 56.88,100.31
                                       58.19,99.18 58.84,97.62 58.84,95.66
                                       58.84,91.98 56.16,90.14 50.78,90.14
                                       50.78,90.14 46.64,90.14 46.64,90.14 Z
                                     M 46.64,110.20
                                     C 46.64,110.20 46.64,122.86 46.64,122.86
                                       46.64,122.86 52.62,122.86 52.62,122.86
                                       55.18,122.86 57.18,122.28 58.62,121.12
                                       60.07,119.96 60.80,118.37 60.80,116.36
                                       60.80,114.45 60.08,112.94 58.66,111.84
                                       57.23,110.75 55.24,110.20 52.69,110.20
                                       52.69,110.20 46.64,110.20 46.64,110.20 Z
                                     M 123.70,131.00
                                     C 123.70,131.00 111.67,131.00 111.67,131.00
                                       111.67,131.00 108.19,120.48 108.19,120.48
                                       108.19,120.48 90.75,120.48 90.75,120.48
                                       90.75,120.48 87.31,131.00 87.31,131.00
                                       87.31,131.00 75.34,131.00 75.34,131.00
                                       75.34,131.00 93.19,82.00 93.19,82.00
                                       93.19,82.00 106.28,82.00 106.28,82.00
                                       106.28,82.00 123.70,131.00 123.70,131.00 Z
                                     M 105.66,112.00
                                     C 105.66,112.00 100.39,95.16 100.39,95.16
                                       100.00,93.93 99.73,92.46 99.58,90.75
                                       99.58,90.75 99.30,90.75 99.30,90.75
                                       99.18,92.19 98.90,93.62 98.45,95.03
                                       98.45,95.03 93.11,112.00 93.11,112.00
                                       93.11,112.00 105.66,112.00 105.66,112.00 Z
                                     M 127.34,129.27
                                     C 127.34,129.27 127.34,118.31 127.34,118.31
                                       129.32,119.98 131.47,121.23 133.80,122.06
                                       136.13,122.90 138.48,123.31 140.84,123.31
                                       142.24,123.31 143.45,123.19 144.48,122.94
                                       145.52,122.68 146.39,122.32 147.08,121.88
                                       147.77,121.43 148.30,120.90 148.64,120.28
                                       148.98,119.67 149.16,119.00 149.16,118.28
                                       149.16,117.32 148.88,116.46 148.33,115.70
                                       147.79,114.95 147.04,114.25 146.09,113.61
                                       145.14,112.96 144.02,112.34 142.72,111.75
                                       141.43,111.16 140.03,110.55 138.53,109.92
                                       134.70,108.32 131.84,106.36 129.95,104.05
                                       128.08,101.73 127.14,98.94 127.14,95.66
                                       127.14,93.09 127.65,90.88 128.67,89.03
                                       129.70,87.19 131.10,85.67 132.86,84.48
                                       134.63,83.29 136.68,82.41 139.00,81.84
                                       141.32,81.28 143.79,81.00 146.39,81.00
                                       148.94,81.00 151.20,81.15 153.17,81.45
                                       155.14,81.75 156.96,82.20 158.62,82.81
                                       158.62,82.81 158.62,92.69 158.62,92.69
                                       157.80,92.19 156.91,91.75 155.94,91.38
                                       154.97,90.99 153.97,90.67 152.94,90.42
                                       151.91,90.17 150.90,89.99 149.89,89.88
                                       148.88,89.75 147.91,89.69 147.00,89.69
                                       145.75,89.69 144.61,89.81 143.58,90.06
                                       142.55,90.30 141.69,90.64 140.98,91.08
                                       140.27,91.52 139.73,92.04 139.34,92.66
                                       138.96,93.27 138.77,93.96 138.77,94.72
                                       138.77,95.54 138.98,96.28 139.41,96.94
                                       139.84,97.59 140.46,98.21 141.25,98.80
                                       142.05,99.38 143.02,99.95 144.16,100.52
                                       145.30,101.08 146.59,101.66 148.03,102.25
                                       149.99,103.07 151.75,103.95 153.31,104.89
                                       154.88,105.82 156.21,106.87 157.33,108.03
                                       158.44,109.20 159.30,110.53 159.89,112.03
                                       160.48,113.53 160.78,115.28 160.78,117.28
                                       160.78,120.03 160.26,122.34 159.22,124.22
                                       158.19,126.09 156.78,127.59 155.00,128.75
                                       153.23,129.91 151.16,130.73 148.80,131.23
                                       146.44,131.74 143.95,132.00 141.33,132.00
                                       138.64,132.00 136.08,131.77 133.66,131.31
                                       131.23,130.86 129.12,130.17 127.34,129.27 Z
                                     M 198.00,131.00
                                     C 198.00,131.00 168.61,131.00 168.61,131.00
                                       168.61,131.00 168.61,82.00 168.61,82.00
                                       168.61,82.00 196.88,82.00 196.88,82.00
                                       196.88,82.00 196.88,90.98 196.88,90.98
                                       196.88,90.98 179.64,90.98 179.64,90.98
                                       179.64,90.98 179.64,102.00 179.64,102.00
                                       179.64,102.00 195.67,102.00 195.67,102.00
                                       195.67,102.00 195.67,110.95 195.67,110.95
                                       195.67,110.95 179.64,110.95 179.64,110.95
                                       179.64,110.95 179.64,122.05 179.64,122.05
                                       179.64,122.05 198.00,122.05 198.00,122.05
                                       198.00,122.05 198.00,131.00 198.00,131.00 Z" />
          </svg>
